<svg width="128" height="128" viewBox="0 0 24 24" fill="none" xmlns="http://www.w3.org/2000/svg">
  <rect width="24" height="24" rx="4" fill="#E0E0E0"/>
  <path d="M5 3H19C20.1 3 21 3.9 21 5V19C21 20.1 20.1 21 19 21H5C3.9 21 3 20.1 3 19V5C3 3.9 3.9 3 5 3ZM12 7C10.34 7 9 8.34 9 10C9 11.66 10.34 13 12 13C13.66 13 15 11.66 15 10C15 8.34 13.66 7 12 7ZM5 19H19V17.5L15.25 13.75L12 17L9.75 14.25L5 19Z" fill="#757575"/>
  <line x1="2" y1="2" x2="22" y2="22" stroke="red" stroke-width="2"/>
  <animateTransform attributeType="xml"
    attributeName="transform"
    type="scale"
    values="1;1.1;1"
    keyTimes="0;0.5;1"
    dur="2s"
    repeatCount="indefinite"/>
</svg>